# xmcd
#
# Track frame offsets:
# 150
# 4543
# 23955
# 26787
# 46548
# 59851
# 83185
# 98628
# 122125
# 125045
# 141575
# 157535
# 175239
# 195002
# 197947
# 214902
# 233293
#
# Disc length: 3442 seconds
#
# Revision: 0
# Processed by: cddbd v1.5.1PL2 Copyright (c) Steve Scherf et al.
# Submitted via: Audion 3.0.2 (http://www.panic.com/audion/)
#
DISCID=dd0d7011
DTITLE=Hassgesang - Bis zum letzten Tropfen Blut
DYEAR=1900
DGENRE=
TTITLE0=Intro
TTITLE1=Freiheit oder Tod
TTITLE2=Deutschkurs I
TTITLE3=Kein Demokrat
TTITLE4=Final Fight
TTITLE5=Die Hölle von ...
TTITLE6=Ein ganzes Volk
TTITLE7=18
TTITLE8=Deutschkurs II
TTITLE9=An den Kanzler
TTITLE10=Mord verjährt nicht
TTITLE11=Denunziant
TTITLE12=Skinhead für immer
TTITLE13=Deutschkurs III
TTITLE14=Schuldpropaganda
TTITLE15=Israel
TTITLE16=Dann holen wir uns uns´re Ehre wieder
EXTD=
EXTT0=
EXTT1=
EXTT2=
EXTT3=
EXTT4=
EXTT5=
EXTT6=
EXTT7=
EXTT8=
EXTT9=
EXTT10=
EXTT11=
EXTT12=
EXTT13=
EXTT14=
EXTT15=
EXTT16=
PLAYORDER=
